{
    "asset" : {
        "copyright" : "p51_tex",
        "generator" : "Khronos glTF Blender I/O v1.2.75",
        "version" : "2.0"
    },
    "scene" : 0,
    "scenes" : [
        {
            "name" : "Scene",
            "nodes" : [
                0
            ]
        }
    ],
    "nodes" : [
        {
            "mesh" : 0,
            "name" : "Cube.001"
        }
    ],
    "materials" : [
        {
            "doubleSided" : true,
            "emissiveFactor" : [
                0,
                0,
                0
            ],
            "name" : "Material.001",
            "pbrMetallicRoughness" : {
                "baseColorTexture" : {
                    "index" : 0,
                    "texCoord" : 0
                },
                "metallicFactor" : 0,
                "roughnessFactor" : 0.5
            }
        }
    ],
    "meshes" : [
        {
            "name" : "Cube.002",
            "primitives" : [
                {
                    "attributes" : {
                        "POSITION" : 0,
                        "NORMAL" : 1,
                        "TEXCOORD_0" : 2
                    },
                    "indices" : 3,
                    "material" : 0
                }
            ]
        }
    ],
    "textures" : [
        {
            "source" : 0
        }
    ],
    "images" : [
        {
            "mimeType" : "image/png",
            "name" : "P51_Mustang",
            "uri" : "p51_tex/P51_Mustang.png"
        }
    ],
    "accessors" : [
        {
            "bufferView" : 0,
            "componentType" : 5126,
            "count" : 909867,
            "max" : [
                5.35044002532959,
                1.985311508178711,
                3.480890989303589
            ],
            "min" : [
                -5.35044002532959,
                -0.8559614419937134,
                -4.982128620147705
            ],
            "type" : "VEC3"
        },
        {
            "bufferView" : 1,
            "componentType" : 5126,
            "count" : 909867,
            "type" : "VEC3"
        },
        {
            "bufferView" : 2,
            "componentType" : 5126,
            "count" : 909867,
            "type" : "VEC2"
        },
        {
            "bufferView" : 3,
            "componentType" : 5125,
            "count" : 1371204,
            "type" : "SCALAR"
        }
    ],
    "bufferViews" : [
        {
            "buffer" : 0,
            "byteLength" : 10918404,
            "byteOffset" : 0
        },
        {
            "buffer" : 0,
            "byteLength" : 10918404,
            "byteOffset" : 10918404
        },
        {
            "buffer" : 0,
            "byteLength" : 7278936,
            "byteOffset" : 21836808
        },
        {
            "buffer" : 0,
            "byteLength" : 5484816,
            "byteOffset" : 29115744
        }
    ],
    "buffers" : [
        {
            "byteLength" : 34600560,
            "uri" : "p51.bin"
        }
    ]
}
