{
    "asset" : {
        "generator" : "Khronos glTF Blender I/O v1.2.75",
        "version" : "2.0"
    },
    "scene" : 0,
    "scenes" : [
        {
            "name" : "Scene",
            "nodes" : [
                0
            ]
        }
    ],
    "nodes" : [
        {
            "mesh" : 0,
            "name" : "Mustang",
            "rotation" : [
                0,
                1,
                0,
                2.6618774427333847e-05
            ],
            "scale" : [
                1.3135906457901,
                1.3135906457901,
                1.3135906457901
            ],
            "translation" : [
                0.002357051009312272,
                -0.5554490089416504,
                3.4016733169555664
            ]
        }
    ],
    "materials" : [
        {
            "doubleSided" : true,
            "emissiveFactor" : [
                0,
                0,
                0
            ],
            "name" : "p51",
            "pbrMetallicRoughness" : {
                "baseColorTexture" : {
                    "index" : 0,
                    "texCoord" : 0
                },
                "metallicFactor" : 0.5318182110786438,
                "roughnessFactor" : 0.2909091114997864
            }
        },
        {
            "doubleSided" : true,
            "name" : "Wheel Strut",
            "pbrMetallicRoughness" : {}
        },
        {
            "alphaMode" : "BLEND",
            "doubleSided" : true,
            "emissiveFactor" : [
                0,
                0,
                0
            ],
            "name" : "glass",
            "pbrMetallicRoughness" : {
                "baseColorTexture" : {
                    "index" : 1,
                    "texCoord" : 0
                },
                "metallicFactor" : 0,
                "roughnessFactor" : 0.5
            }
        },
        {
            "doubleSided" : true,
            "name" : "Material.001",
            "pbrMetallicRoughness" : {}
        },
        {
            "doubleSided" : true,
            "name" : "acmat_6.001",
            "pbrMetallicRoughness" : {}
        }
    ],
    "meshes" : [
        {
            "name" : "Mustang",
            "primitives" : [
                {
                    "attributes" : {
                        "POSITION" : 0,
                        "NORMAL" : 1,
                        "TEXCOORD_0" : 2
                    },
                    "indices" : 3,
                    "material" : 0
                },
                {
                    "attributes" : {
                        "POSITION" : 4,
                        "NORMAL" : 5,
                        "TEXCOORD_0" : 6
                    },
                    "indices" : 7,
                    "material" : 1
                },
                {
                    "attributes" : {
                        "POSITION" : 8,
                        "NORMAL" : 9,
                        "TEXCOORD_0" : 10
                    },
                    "indices" : 11,
                    "material" : 2
                },
                {
                    "attributes" : {
                        "POSITION" : 12,
                        "NORMAL" : 13,
                        "TEXCOORD_0" : 14
                    },
                    "indices" : 15,
                    "material" : 3
                },
                {
                    "attributes" : {
                        "POSITION" : 16,
                        "NORMAL" : 17,
                        "TEXCOORD_0" : 18
                    },
                    "indices" : 19,
                    "material" : 4
                }
            ]
        }
    ],
    "textures" : [
        {
            "source" : 0
        },
        {
            "source" : 1
        }
    ],
    "images" : [
        {
            "mimeType" : "image/png",
            "name" : "P51_Mustang",
            "uri" : "p51_tex/P51_Mustang.png"
        },
        {
            "mimeType" : "image/png",
            "name" : "P51_canopy",
            "uri" : "p51_tex/P51_canopy.png"
        }
    ],
    "accessors" : [
        {
            "bufferView" : 0,
            "componentType" : 5126,
            "count" : 2715,
            "max" : [
                4.289618492126465,
                1.7284654378890991,
                2.7503652572631836
            ],
            "min" : [
                -4.294332504272461,
                -0.43896421790122986,
                -3.7027783393859863
            ],
            "type" : "VEC3"
        },
        {
            "bufferView" : 1,
            "componentType" : 5126,
            "count" : 2715,
            "type" : "VEC3"
        },
        {
            "bufferView" : 2,
            "componentType" : 5126,
            "count" : 2715,
            "type" : "VEC2"
        },
        {
            "bufferView" : 3,
            "componentType" : 5123,
            "count" : 11154,
            "type" : "SCALAR"
        },
        {
            "bufferView" : 4,
            "componentType" : 5126,
            "count" : 512,
            "max" : [
                1.4040447473526,
                0.02507108449935913,
                1.0507547855377197
            ],
            "min" : [
                -1.4087587594985962,
                -0.018956899642944336,
                1.0067269802093506
            ],
            "type" : "VEC3"
        },
        {
            "bufferView" : 5,
            "componentType" : 5126,
            "count" : 512,
            "type" : "VEC3"
        },
        {
            "bufferView" : 6,
            "componentType" : 5126,
            "count" : 512,
            "type" : "VEC2"
        },
        {
            "bufferView" : 7,
            "componentType" : 5123,
            "count" : 768,
            "type" : "SCALAR"
        },
        {
            "bufferView" : 8,
            "componentType" : 5126,
            "count" : 202,
            "max" : [
                0.29500889778137207,
                1.1138858795166016,
                0.6573147773742676
            ],
            "min" : [
                -0.29500889778137207,
                0.4130208194255829,
                0.28022056818008423
            ],
            "type" : "VEC3"
        },
        {
            "bufferView" : 9,
            "componentType" : 5126,
            "count" : 202,
            "type" : "VEC3"
        },
        {
            "bufferView" : 10,
            "componentType" : 5126,
            "count" : 202,
            "type" : "VEC2"
        },
        {
            "bufferView" : 11,
            "componentType" : 5123,
            "count" : 882,
            "type" : "SCALAR"
        },
        {
            "bufferView" : 12,
            "componentType" : 5126,
            "count" : 552,
            "max" : [
                0.22792236506938934,
                1.0281227827072144,
                0.6462767124176025
            ],
            "min" : [
                -0.23923079669475555,
                0.38667619228363037,
                -0.2998178005218506
            ],
            "type" : "VEC3"
        },
        {
            "bufferView" : 13,
            "componentType" : 5126,
            "count" : 552,
            "type" : "VEC3"
        },
        {
            "bufferView" : 14,
            "componentType" : 5126,
            "count" : 552,
            "type" : "VEC2"
        },
        {
            "bufferView" : 15,
            "componentType" : 5123,
            "count" : 852,
            "type" : "SCALAR"
        },
        {
            "bufferView" : 16,
            "componentType" : 5126,
            "count" : 6007,
            "max" : [
                0.3187441825866699,
                1.0110424757003784,
                0.764169454574585
            ],
            "min" : [
                -0.15871171653270721,
                0.03237104415893555,
                -0.05812564492225647
            ],
            "type" : "VEC3"
        },
        {
            "bufferView" : 17,
            "componentType" : 5126,
            "count" : 6007,
            "type" : "VEC3"
        },
        {
            "bufferView" : 18,
            "componentType" : 5126,
            "count" : 6007,
            "type" : "VEC2"
        },
        {
            "bufferView" : 19,
            "componentType" : 5123,
            "count" : 7326,
            "type" : "SCALAR"
        }
    ],
    "bufferViews" : [
        {
            "buffer" : 0,
            "byteLength" : 32580,
            "byteOffset" : 0
        },
        {
            "buffer" : 0,
            "byteLength" : 32580,
            "byteOffset" : 32580
        },
        {
            "buffer" : 0,
            "byteLength" : 21720,
            "byteOffset" : 65160
        },
        {
            "buffer" : 0,
            "byteLength" : 22308,
            "byteOffset" : 86880
        },
        {
            "buffer" : 0,
            "byteLength" : 6144,
            "byteOffset" : 109188
        },
        {
            "buffer" : 0,
            "byteLength" : 6144,
            "byteOffset" : 115332
        },
        {
            "buffer" : 0,
            "byteLength" : 4096,
            "byteOffset" : 121476
        },
        {
            "buffer" : 0,
            "byteLength" : 1536,
            "byteOffset" : 125572
        },
        {
            "buffer" : 0,
            "byteLength" : 2424,
            "byteOffset" : 127108
        },
        {
            "buffer" : 0,
            "byteLength" : 2424,
            "byteOffset" : 129532
        },
        {
            "buffer" : 0,
            "byteLength" : 1616,
            "byteOffset" : 131956
        },
        {
            "buffer" : 0,
            "byteLength" : 1764,
            "byteOffset" : 133572
        },
        {
            "buffer" : 0,
            "byteLength" : 6624,
            "byteOffset" : 135336
        },
        {
            "buffer" : 0,
            "byteLength" : 6624,
            "byteOffset" : 141960
        },
        {
            "buffer" : 0,
            "byteLength" : 4416,
            "byteOffset" : 148584
        },
        {
            "buffer" : 0,
            "byteLength" : 1704,
            "byteOffset" : 153000
        },
        {
            "buffer" : 0,
            "byteLength" : 72084,
            "byteOffset" : 154704
        },
        {
            "buffer" : 0,
            "byteLength" : 72084,
            "byteOffset" : 226788
        },
        {
            "buffer" : 0,
            "byteLength" : 48056,
            "byteOffset" : 298872
        },
        {
            "buffer" : 0,
            "byteLength" : 14652,
            "byteOffset" : 346928
        }
    ],
    "buffers" : [
        {
            "byteLength" : 361580,
            "uri" : "P51_Mustang_real.bin"
        }
    ]
}
